<mxfile host="app.diagrams.net" modified="2023-11-29T20:41:04.952Z" agent="Mozilla/5.0 (Windows NT 10.0; Win64; x64) AppleWebKit/537.36 (KHTML, like Gecko) Chrome/119.0.0.0 Safari/537.36" version="22.1.5" etag="aQRR3w1t-bIB9iDW-PLm" type="github">
  <diagram name="PÃ¡gina-1" id="0wkw02A38sCXVXbr0hsW">
    <mxGraphModel>
      <root>
        <mxCell id="0" />
        <mxCell id="1" parent="0" />
      </root>
    </mxGraphModel>
  </diagram>
</mxfile>
